<svg width="245" height="26" viewBox="0 0 245 26" fill="none" xmlns="http://www.w3.org/2000/svg">
<path d="M12.1305 12.6955H5.57383C4.84192 12.6953 4.11715 12.8383 3.4409 13.1161C2.76466 13.3939 2.1502 13.8012 1.6326 14.3147C1.11501 14.8282 0.704428 15.4378 0.424303 16.1088C0.144179 16.7797 -1.33027e-08 17.4989 0 18.2251V23.7516H12.1305C13.5953 23.7315 14.9933 23.14 16.0219 22.1051C17.0506 21.0702 17.6274 19.675 17.6274 18.2214C17.6274 16.7678 17.0506 15.3727 16.0219 14.3377C14.9933 13.3028 13.5953 12.7113 12.1305 12.6913V12.6955Z" fill="#266041"/>
<path d="M12.1305 0.252635H5.57383C4.84192 0.252496 4.11715 0.395423 3.4409 0.673251C2.76466 0.951079 2.1502 1.35836 1.6326 1.87185C1.11501 2.38534 0.704428 2.99497 0.424303 3.66592C0.144179 4.33688 -1.33027e-08 5.05601 0 5.78226V11.3087H12.1305C13.5953 11.2887 14.9933 10.6972 16.0219 9.66227C17.0506 8.62735 17.6274 7.23218 17.6274 5.77858C17.6274 4.32497 17.0506 2.92981 16.0219 1.89488C14.9933 0.859959 13.5953 0.268486 12.1305 0.248417V0.252635Z" fill="#266041" fill-opacity="0.2"/>
<path d="M36.5636 9.26356C36.0731 8.65125 35.4575 8.15075 34.758 7.79554C34.0387 7.43783 33.2446 7.25625 32.4413 7.26578C31.5086 7.24348 30.5876 7.47633 29.7776 7.93918C29.0223 8.39039 28.3924 9.0241 27.9458 9.78212V2.20701H24.6069V20.6551H27.5224V18.1332C27.9613 18.9027 28.5992 19.5399 29.3691 19.978C30.1822 20.4329 31.1012 20.6646 32.0328 20.6495C32.868 20.657 33.695 20.4846 34.4577 20.144C35.1957 19.809 35.8543 19.3214 36.3902 18.7133C36.9451 18.088 37.3801 17.3659 37.6735 16.5831C37.9841 15.7555 38.1402 14.878 38.1342 13.994C38.1405 13.1154 38.0013 12.2418 37.722 11.4087C37.4662 10.6306 37.074 9.9042 36.5636 9.26356ZM34.4707 15.4732C34.306 15.9229 34.0523 16.3346 33.7246 16.6838C33.3985 17.0289 33.0082 17.307 32.5756 17.5027C32.1177 17.7107 31.6198 17.8158 31.1169 17.8105C30.7902 17.8076 30.4661 17.7534 30.1562 17.6501C29.8286 17.5417 29.5154 17.3939 29.2236 17.2099C28.9285 17.0267 28.6631 16.7996 28.4364 16.5365C28.2153 16.2803 28.0495 15.9812 27.9495 15.6579V12.6006C28.1462 12.1348 28.4199 11.7053 28.7591 11.3303C29.0909 10.9623 29.4889 10.6598 29.9324 10.4387C30.4316 10.1885 30.9885 10.0756 31.5457 10.1116C32.103 10.1477 32.6406 10.3314 33.1035 10.6439C33.6167 11.0119 34.0281 11.5042 34.2991 12.0746C34.5915 12.6812 34.7408 13.3468 34.7356 14.0201C34.7357 14.5165 34.6459 15.0088 34.4707 15.4732Z" fill="black"/>
<path d="M50.1489 8.19286C49.1378 7.57543 47.9105 7.26019 46.4872 7.26019C45.2 7.22815 43.9283 7.54735 42.8088 8.18353C41.8022 8.76711 40.9755 9.61635 40.4193 10.6383C39.8571 11.6739 39.5694 12.8363 39.5836 14.0146C39.5726 15.7474 40.2424 17.4153 41.4489 18.6592C42.0646 19.2884 42.803 19.7843 43.6183 20.116C44.5206 20.4831 45.4871 20.6663 46.4611 20.6551C47.3603 20.665 48.2542 20.5172 49.1024 20.2186C49.8654 19.9486 50.5714 19.5387 51.1841 19.0099C51.7535 18.5201 52.2158 17.9181 52.5421 17.2416L49.6769 16.4451C49.4371 17.001 49.0092 17.4547 48.4682 17.7266C47.8923 18.0476 47.2435 18.2152 46.5842 18.2134C46.0185 18.2181 45.4595 18.0904 44.952 17.8403C44.4462 17.5883 44.0162 17.2066 43.706 16.7342C43.3739 16.2227 43.1733 15.637 43.1221 15.0293H53.2155C53.2304 14.8969 53.2472 14.729 53.2639 14.5238C53.2807 14.3186 53.2901 14.1153 53.2901 13.9176C53.2967 12.7766 53.0184 11.652 52.4805 10.6458C51.9405 9.63153 51.1344 8.78354 50.1489 8.19286ZM43.0457 12.8972C43.0963 12.297 43.288 11.7174 43.6053 11.2054C43.9021 10.7366 44.3136 10.3514 44.8009 10.0862C45.3022 9.81628 45.8639 9.67827 46.4331 9.68512C47.0175 9.67597 47.5948 9.81389 48.1119 10.0862C48.6047 10.3479 49.0207 10.7336 49.3188 11.2054C49.6368 11.717 49.8286 12.2969 49.8784 12.8972H43.0457Z" fill="black"/>
<path d="M61.0965 17.4095C60.7683 17.5259 60.4225 17.5853 60.0743 17.5848C59.7571 17.5959 59.4468 17.4911 59.2013 17.2901C58.9681 17.0924 58.845 16.7734 58.8282 16.3294V9.83622H61.5703V7.26579H60.078C59.7441 7.26579 59.4238 7.13315 59.1877 6.89702C58.9516 6.66089 58.8189 6.34063 58.8189 6.0067V3.22923H55.4874V7.26579H53.7676V9.83622H55.4874V17.4654C55.4585 18.1105 55.6193 18.75 55.95 19.3046C56.2463 19.7643 56.6768 20.1218 57.183 20.3287C57.7203 20.5491 58.2961 20.6601 58.8767 20.6551C59.3408 20.6555 59.8038 20.6099 60.2589 20.519C60.6957 20.4329 61.1249 20.3119 61.5423 20.1571C61.9415 20.0079 62.2884 19.8754 62.5645 19.7579L61.893 17.111C61.6934 17.195 61.4285 17.2975 61.0965 17.4095Z" fill="black"/>
<path d="M70.093 17.4095C69.7654 17.526 69.4203 17.5853 69.0726 17.5848C68.7577 17.5971 68.449 17.4951 68.2034 17.2975C67.9702 17.0998 67.8452 16.7808 67.8303 16.3369V9.83622H70.5724V7.26579H69.0894C68.7555 7.26579 68.4352 7.13315 68.1991 6.89702C67.963 6.66089 67.8303 6.34063 67.8303 6.0067V3.22923H64.4914V7.26579H62.7715V9.83622H64.4914V17.4654C64.4914 18.2228 64.645 18.8358 64.9521 19.3046C65.2491 19.7645 65.6801 20.1219 66.187 20.3287C66.7245 20.5474 67.3004 20.6565 67.8807 20.6495C68.3454 20.6499 68.809 20.6043 69.2648 20.5134C69.7015 20.4273 70.1307 20.3063 70.5481 20.1515C70.9473 20.0023 71.2942 19.8698 71.5703 19.7523L70.8913 17.111C70.6917 17.195 70.425 17.2975 70.093 17.4095Z" fill="black"/>
<path d="M82.5664 8.19287C81.5517 7.57109 80.3299 7.2602 78.901 7.2602C77.4909 7.2602 76.266 7.56799 75.2263 8.18354C74.2195 8.76803 73.3919 9.61696 72.8331 10.6383C72.2723 11.6745 71.9847 12.8364 71.9975 14.0146C71.9868 15.7474 72.6566 17.4151 73.8628 18.6592C74.4774 19.2888 75.2153 19.7847 76.0303 20.1161C76.9316 20.4821 77.8966 20.6654 78.8693 20.6551C79.7685 20.665 80.6624 20.5173 81.5106 20.2186C82.2735 19.9482 82.9794 19.5384 83.5924 19.0099C84.1618 18.5201 84.6241 17.9181 84.9503 17.2416L82.0852 16.4451C81.8451 17.0021 81.4156 17.4561 80.8727 17.7266C80.2982 18.0477 79.6506 18.2154 78.9925 18.2134C78.4267 18.2181 77.8678 18.0904 77.3603 17.8403C76.8538 17.5893 76.4236 17.2074 76.1142 16.7342C75.7821 16.2227 75.5816 15.637 75.5304 15.0293H85.6237C85.6386 14.8969 85.6554 14.729 85.6722 14.5238C85.689 14.3186 85.6983 14.1153 85.6983 13.9176C85.705 12.7766 85.4267 11.652 84.8888 10.6458C84.3513 9.63274 83.5486 8.78487 82.5664 8.19287ZM75.4632 12.8972C75.5121 12.2967 75.704 11.7166 76.0228 11.2054C76.3196 10.7366 76.7312 10.3514 77.2185 10.0862C77.7198 9.81629 78.2814 9.67828 78.8507 9.68513C79.435 9.67638 80.0122 9.81427 80.5295 10.0862C81.0215 10.3489 81.4373 10.7345 81.7363 11.2054C82.0536 11.7174 82.2453 12.2971 82.2959 12.8972H75.4632Z" fill="black"/>
<path d="M95.0231 7.26579C94.7586 7.26325 94.4943 7.27946 94.2322 7.31429C93.5879 7.39414 92.9741 7.63468 92.4471 8.01379C91.697 8.56939 91.0901 9.29581 90.6769 10.1328V7.26579H87.6028V20.6551H90.9604V12.4999C91.3222 11.7582 91.93 11.1649 92.6802 10.8211C93.5285 10.4197 94.4579 10.2192 95.3962 10.2354V7.26952H95.0231V7.26579Z" fill="black"/>
<path d="M104.986 17.0606C104.699 17.2962 104.375 17.4816 104.027 17.6091C103.664 17.7437 103.28 17.8113 102.893 17.8086C102.283 17.8156 101.684 17.641 101.173 17.3069C100.651 16.9651 100.225 16.4941 99.9383 15.9396C99.6221 15.3212 99.4638 14.6343 99.4775 13.9399C99.462 13.2413 99.6163 12.5494 99.9271 11.9235C100.2 11.3719 100.623 10.9083 101.148 10.586C101.673 10.2637 102.277 10.0956 102.893 10.1011C103.432 10.0955 103.964 10.2285 104.437 10.4872C104.905 10.7516 105.292 11.1385 105.557 11.6064L108.821 10.6103C108.315 9.60015 107.527 8.758 106.553 8.18541C105.538 7.56985 104.325 7.26207 102.913 7.26207C101.502 7.26207 100.281 7.56612 99.2499 8.17422C98.2504 8.75047 97.4273 9.589 96.8698 10.5991C96.31 11.6222 96.0223 12.7719 96.0341 13.9381C96.0305 14.8079 96.1958 15.6701 96.521 16.4768C96.8417 17.2767 97.3113 18.0084 97.905 18.6331C98.514 19.2749 99.253 19.7792 100.073 20.1123C101.829 20.7843 103.765 20.818 105.544 20.2075C106.286 19.9368 106.971 19.5287 107.562 19.0043C108.112 18.5184 108.556 17.9248 108.868 17.2602L105.601 16.2642C105.461 16.5742 105.251 16.847 104.986 17.0606Z" fill="black"/>
<path d="M121.576 9.26355C120.965 8.63078 120.231 8.131 119.418 7.79554C118.512 7.42976 117.542 7.24961 116.566 7.26578C115.584 7.25038 114.61 7.43047 113.699 7.79554C112.884 8.12592 112.149 8.6264 111.542 9.26355C110.956 9.8842 110.494 10.6127 110.184 11.4087C109.553 13.0506 109.553 14.8685 110.184 16.5104C110.495 17.305 110.956 18.0322 111.542 18.6518C112.149 19.2889 112.884 19.79 113.699 20.1216C115.545 20.8254 117.585 20.8254 119.431 20.1216C120.246 19.7908 120.98 19.2897 121.585 18.6518C122.172 18.0342 122.631 17.3063 122.934 16.5104C123.548 14.8653 123.548 13.0538 122.934 11.4087C122.63 10.6098 122.168 9.8803 121.576 9.26355ZM119.524 15.9396C119.237 16.4937 118.811 16.9646 118.289 17.3069C117.778 17.6405 117.18 17.8157 116.569 17.8105C115.952 17.8192 115.346 17.6488 114.824 17.3199C114.302 16.9847 113.88 16.5157 113.602 15.962C113.307 15.3388 113.154 14.6581 113.154 13.9689C113.154 13.2796 113.307 12.5989 113.602 11.9757C113.883 11.4211 114.304 10.9497 114.824 10.6085C115.342 10.2828 115.942 10.109 116.555 10.1067C117.167 10.1044 117.768 10.2737 118.289 10.5954C118.815 10.9354 119.241 11.4084 119.524 11.9664C119.826 12.5851 119.983 13.2645 119.983 13.953C119.983 14.6415 119.826 15.3209 119.524 15.9396Z" fill="black"/>
<path d="M159.299 9.22439C158.76 8.61692 158.102 8.12676 157.366 7.78436C156.606 7.43496 155.778 7.25787 154.941 7.26579C154.028 7.24992 153.128 7.47512 152.33 7.91866C151.566 8.35477 150.917 8.96672 150.436 9.70378V7.26579H147.517V25.7102H150.856V18.1369C151.281 18.9013 151.907 19.5352 152.666 19.9706C153.481 20.4348 154.408 20.6694 155.346 20.6495C156.4 20.6672 157.433 20.352 158.297 19.7486C159.171 19.131 159.868 18.2948 160.317 17.3237C160.816 16.2597 161.068 15.0964 161.052 13.9213C161.059 13.0422 160.903 12.1694 160.591 11.3471C160.292 10.5674 159.854 9.84821 159.299 9.22439ZM157.392 15.38C157.238 15.8342 157.002 16.256 156.695 16.6242C156.396 16.9834 156.027 17.2785 155.611 17.4915C155.178 17.7086 154.698 17.8186 154.214 17.8124C153.738 17.8086 153.268 17.6957 152.843 17.4822C152.39 17.2603 151.986 16.9495 151.656 16.5682C151.32 16.1844 151.046 15.7493 150.847 15.2793V12.2444C150.95 11.9315 151.116 11.6429 151.334 11.3956C151.563 11.1321 151.828 10.9023 152.121 10.7129C152.411 10.5236 152.724 10.3731 153.054 10.2652C153.363 10.1625 153.688 10.109 154.014 10.1067C154.507 10.1018 154.995 10.2017 155.447 10.3996C155.885 10.5946 156.28 10.8746 156.61 11.2232C156.939 11.5719 157.196 11.9823 157.366 12.4309C157.544 12.9082 157.632 13.4139 157.627 13.9232C157.629 14.4177 157.549 14.9092 157.392 15.3781V15.38Z" fill="black"/>
<path d="M167.625 20.4686C168.167 20.3699 168.695 20.2025 169.194 19.9706L168.747 17.4281C168.507 17.5354 168.257 17.6185 168 17.6762C167.731 17.7416 167.455 17.7754 167.178 17.7769C167.026 17.7851 166.875 17.7615 166.733 17.7075C166.592 17.6535 166.463 17.5704 166.355 17.4635C166.155 17.2571 166.056 16.853 166.057 16.2511V2.20701H162.716V17.4262C162.716 18.4596 163.003 19.2549 163.576 19.812C164.149 20.3691 164.957 20.6483 166.001 20.6495C166.547 20.6407 167.091 20.5802 167.625 20.4686Z" fill="black"/>
<path d="M188.648 20.4014V17.6818C188.418 17.674 188.2 17.5786 188.038 17.415C187.893 17.1948 187.827 16.9316 187.851 16.6689V12.5652C187.851 10.8603 187.333 9.55019 186.296 8.63493C185.258 7.71968 183.808 7.26019 181.944 7.25645C180.976 7.25111 180.014 7.39455 179.09 7.68175C178.151 7.97946 177.258 8.40636 176.437 8.95018L177.508 11.1438C178.149 10.7031 178.837 10.3352 179.56 10.047C180.215 9.79677 180.911 9.67027 181.612 9.67393C182.578 9.67393 183.302 9.89216 183.792 10.3324C184.283 10.7726 184.538 11.4031 184.538 12.2164V12.9121C184.067 12.7157 183.573 12.5815 183.067 12.513C182.514 12.4327 181.957 12.3916 181.399 12.3898C180.402 12.3727 179.411 12.5475 178.48 12.9047C177.698 13.2036 177.013 13.7106 176.499 14.3708C176.025 15.0063 175.776 15.7812 175.79 16.5738C175.78 17.31 175.983 18.0334 176.374 18.6574C176.773 19.2794 177.333 19.7816 177.995 20.1104C178.718 20.4702 179.517 20.6512 180.325 20.6383C181.222 20.6344 182.107 20.4305 182.916 20.0414C183.748 19.6555 184.475 19.0745 185.035 18.3477L185.109 19.0192C185.193 19.4461 185.417 19.8325 185.747 20.116C186.087 20.4126 186.588 20.5637 187.254 20.5637C187.458 20.5605 187.662 20.5443 187.864 20.5152C188.081 20.4928 188.347 20.4499 188.648 20.4014ZM184.512 16.1112C184.504 16.3011 184.443 16.485 184.337 16.6428C184.21 16.854 184.06 17.0504 183.889 17.2285C183.545 17.53 183.148 17.7647 182.718 17.9206C182.248 18.1036 181.748 18.1984 181.244 18.2004C180.815 18.212 180.389 18.1205 180.002 17.9336C179.676 17.775 179.4 17.5314 179.202 17.2285C179.022 16.9506 178.927 16.6267 178.927 16.2958C178.927 16.0027 179.005 15.7147 179.151 15.4609C179.298 15.2071 179.509 14.9965 179.763 14.8502C180.323 14.4883 181.03 14.3055 181.895 14.3055C182.339 14.3076 182.781 14.3525 183.216 14.4398C183.663 14.519 184.1 14.644 184.522 14.8129L184.512 16.1112Z" fill="black"/>
<path d="M213.934 20.2149C214.677 19.942 215.362 19.5313 215.952 19.0043C216.503 18.519 216.948 17.9252 217.258 17.2602L213.994 16.2641C213.851 16.5745 213.638 16.8473 213.371 17.0606C213.084 17.2962 212.759 17.4816 212.41 17.609C212.047 17.7438 211.663 17.8115 211.276 17.8086C210.666 17.8154 210.068 17.6407 209.558 17.3069C209.035 16.9657 208.61 16.4945 208.323 15.9396C208.007 15.3232 207.849 14.6381 207.862 13.9455C207.847 13.2472 208.001 12.5554 208.31 11.9291C208.588 11.3741 209.016 10.9082 209.545 10.5842C210.066 10.2669 210.666 10.1015 211.276 10.1067C211.816 10.1016 212.348 10.2346 212.822 10.4928C213.29 10.757 213.677 11.144 213.942 11.612L217.208 10.6159C216.701 9.6061 215.913 8.76408 214.94 8.19099C213.925 7.57543 212.712 7.26765 211.3 7.26765C209.889 7.26765 208.668 7.5717 207.637 8.1798C206.637 8.75551 205.814 9.59418 205.257 10.6047C204.696 11.6275 204.408 12.7774 204.421 13.9437C204.417 14.8135 204.583 15.6757 204.908 16.4824C205.228 17.2822 205.697 18.014 206.29 18.6387C206.9 19.2805 207.639 19.7848 208.459 20.1179C210.216 20.7899 212.152 20.8236 213.93 20.213L213.934 20.2149Z" fill="black"/>
<path d="M226.743 17.721C226.169 18.0413 225.521 18.2089 224.863 18.2078C224.297 18.2132 223.738 18.0854 223.231 17.8348C222.724 17.584 222.293 17.2021 221.983 16.7286C221.651 16.2166 221.45 15.6314 221.395 15.0237H231.493C231.509 14.8913 231.526 14.7234 231.541 14.5182C231.556 14.313 231.567 14.1097 231.567 13.912C231.574 12.7707 231.295 11.646 230.756 10.6402C230.219 9.62872 229.417 8.78264 228.435 8.19287C227.421 7.57109 226.199 7.2602 224.77 7.2602C223.341 7.2602 222.115 7.56799 221.093 8.18354C220.087 8.76908 219.26 9.61775 218.7 10.6383C218.138 11.6741 217.851 12.8363 217.864 14.0146C217.857 14.8834 218.02 15.7452 218.344 16.5514C219.011 18.174 220.281 19.4746 221.888 20.1795C222.795 20.5243 223.761 20.6859 224.731 20.6551C225.632 20.6526 226.526 20.4916 227.372 20.1795C228.132 19.9235 228.838 19.5267 229.452 19.0099C230.023 18.5213 230.487 17.9191 230.814 17.2416L227.947 16.4451C227.707 16.9982 227.281 17.4497 226.743 17.721ZM221.882 11.2054C222.18 10.737 222.592 10.3519 223.08 10.0862C223.581 9.81629 224.143 9.67828 224.712 9.68513C225.296 9.67615 225.874 9.81405 226.391 10.0862C226.883 10.3494 227.299 10.7348 227.6 11.2054C227.915 11.7181 228.107 12.2974 228.159 12.8972H221.33C221.378 12.2977 221.568 11.718 221.882 11.2054Z" fill="black"/>
<path d="M170.455 5.70265C170.456 5.71887 170.461 5.73454 170.471 5.74758C170.481 5.76062 170.494 5.77041 170.509 5.77567C170.525 5.78093 170.541 5.78139 170.557 5.77701C170.573 5.77263 170.587 5.76361 170.597 5.75114C170.683 5.64389 170.793 5.55739 170.917 5.49799C171.041 5.43859 171.177 5.40782 171.315 5.40792H173.794V2.20701H170.455V5.70265Z" fill="black"/>
<path d="M173.794 7.26578H170.455V20.6495H173.794V7.26578Z" fill="black"/>
<path d="M202.694 20.6551V12.3414C202.693 11.7223 202.639 11.1044 202.531 10.4947C202.435 9.91938 202.241 9.36483 201.957 8.85505C201.675 8.3641 201.261 7.96259 200.761 7.69669C200.139 7.38688 199.449 7.23869 198.754 7.26579C198.032 7.26123 197.313 7.36498 196.622 7.57357C195.981 7.76309 195.379 8.06362 194.843 8.46147C194.329 8.84474 193.897 9.32593 193.57 9.87725V7.26579H190.569V20.6551H193.908V12.5279C193.908 12.1908 193.975 11.8571 194.104 11.5458C194.233 11.2345 194.423 10.9517 194.661 10.7135C194.9 10.4753 195.183 10.2865 195.494 10.1577C195.806 10.029 196.139 9.96282 196.477 9.96306H196.801C197.361 9.96152 197.906 10.1451 198.351 10.4854L198.433 10.5469C198.582 10.6493 198.713 10.7753 198.821 10.92C198.879 10.9966 198.93 11.0777 198.974 11.1625C199.235 11.6363 199.37 12.3078 199.37 13.1789V20.6551H202.694Z" fill="black"/>
<path d="M144.609 8.85505C144.325 8.37127 143.918 7.97155 143.428 7.69669C142.815 7.3857 142.131 7.23733 141.444 7.26578C140.472 7.25161 139.513 7.4935 138.664 7.96715C137.821 8.45722 137.12 9.15866 136.631 10.0022C136.474 9.24298 136.068 8.55808 135.477 8.05669C134.868 7.53067 134.025 7.26703 132.945 7.26578C131.947 7.24633 130.961 7.47857 130.076 7.94104C129.248 8.39347 128.558 9.06276 128.08 9.87725V7.26578H125.064V20.6551H128.403V12.5279C128.402 12.1851 128.471 11.8456 128.605 11.5299C128.638 11.4516 128.674 11.3751 128.713 11.3042C128.733 11.2688 128.752 11.2315 128.774 11.196C128.879 11.0205 129.004 10.8583 129.147 10.7129C129.629 10.2342 130.28 9.96586 130.959 9.96679H131.11L131.207 9.97798L131.502 10.0227C131.533 10.0227 131.571 10.0358 131.602 10.0451L131.841 10.1216C131.881 10.1341 131.92 10.149 131.959 10.1664L132.072 10.2149L132.184 10.2746L132.291 10.3361L132.438 10.4313C132.559 10.5154 132.673 10.6103 132.777 10.7148C132.943 10.8816 133.086 11.0698 133.203 11.2744C133.202 11.2787 133.202 11.2831 133.203 11.2874C133.255 11.38 133.301 11.476 133.341 11.5747C133.362 11.624 133.381 11.6744 133.397 11.7258C133.414 11.776 133.429 11.827 133.441 11.8788C133.468 11.9845 133.488 12.0916 133.503 12.1996C133.512 12.2545 133.518 12.3099 133.52 12.3656C133.52 12.4216 133.52 12.4757 133.52 12.5316V20.6551H136.859V12.5279C136.859 12.1881 136.927 11.8518 137.058 11.5384C137.189 11.225 137.381 10.9408 137.623 10.7022C137.865 10.4636 138.152 10.2754 138.467 10.1485C138.782 10.0217 139.119 9.95861 139.459 9.96306C139.529 9.96235 139.598 9.96547 139.668 9.97238C139.729 9.97238 139.789 9.97239 139.854 9.99104L140.106 10.0433C140.162 10.0566 140.217 10.0734 140.27 10.0936L140.457 10.1645C140.521 10.1894 140.583 10.2181 140.643 10.2503C140.696 10.2753 140.747 10.3034 140.796 10.3343L140.817 10.3473C140.871 10.3828 140.925 10.4163 140.979 10.4592C140.988 10.4609 140.996 10.4655 141.002 10.4723L141.018 10.4853C141.111 10.5545 141.198 10.6306 141.28 10.7129C141.422 10.8591 141.547 11.0212 141.653 11.196C141.661 11.207 141.668 11.2189 141.673 11.2315C141.701 11.2781 141.727 11.3266 141.752 11.3751C141.779 11.4251 141.802 11.4768 141.822 11.5299C141.845 11.5797 141.865 11.6308 141.882 11.6829C141.904 11.7482 141.927 11.8172 141.944 11.8843C141.96 11.9515 141.97 11.9888 141.979 12.041C142 12.1469 142.013 12.2541 142.018 12.3619C142.018 12.4178 142.018 12.4719 142.018 12.5279V12.9924C142.018 13.0539 142.018 13.1155 142.018 13.1789V20.6402H145.357V12.3414C145.359 11.7221 145.304 11.104 145.193 10.4947C145.098 9.91752 144.901 9.3621 144.609 8.85505Z" fill="black"/>
<path d="M242.435 19.7225C242.876 19.279 243.177 18.7147 243.299 18.1006C243.421 17.4865 243.358 16.8501 243.119 16.2716C242.879 15.6931 242.474 15.1984 241.954 14.8499C241.434 14.5013 240.822 14.3145 240.196 14.313H236.466C235.624 14.313 234.818 14.6471 234.223 15.2418C233.629 15.8365 233.294 16.643 233.294 17.4841V20.6551H240.196C240.612 20.6548 241.024 20.5723 241.408 20.4122C241.793 20.2521 242.141 20.0177 242.435 19.7225Z" fill="#266041"/>
</svg>
