<svg width="18" height="24" viewBox="0 0 18 24" fill="none" xmlns="http://www.w3.org/2000/svg">
<path d="M12.1305 12.6955H5.57383C4.84192 12.6953 4.11715 12.8383 3.4409 13.1161C2.76466 13.3939 2.1502 13.8012 1.6326 14.3147C1.11501 14.8282 0.704428 15.4378 0.424303 16.1088C0.144179 16.7797 -1.33027e-08 17.4989 0 18.2251V23.7516H12.1305C13.5953 23.7315 14.9933 23.14 16.0219 22.1051C17.0506 21.0702 17.6274 19.675 17.6274 18.2214C17.6274 16.7678 17.0506 15.3727 16.0219 14.3377C14.9933 13.3028 13.5953 12.7113 12.1305 12.6913V12.6955Z" fill="#185B37"/>
<path d="M12.1305 0.252635H5.57383C4.84192 0.252496 4.11715 0.395423 3.4409 0.673251C2.76466 0.951079 2.1502 1.35836 1.6326 1.87185C1.11501 2.38534 0.704428 2.99497 0.424303 3.66592C0.144179 4.33688 -1.33027e-08 5.05601 0 5.78226V11.3087H12.1305C13.5953 11.2887 14.9933 10.6972 16.0219 9.66227C17.0506 8.62735 17.6274 7.23218 17.6274 5.77858C17.6274 4.32497 17.0506 2.92981 16.0219 1.89488C14.9933 0.859959 13.5953 0.268486 12.1305 0.248417V0.252635Z" fill="#185B37" fill-opacity="0.4"/>
</svg>
