<svg width="122" height="56" viewBox="0 0 122 56" fill="none" xmlns="http://www.w3.org/2000/svg">
<path opacity="0.4" d="M15.3737 27.787C15.3737 25.9889 14.0224 24.726 12.362 24.726C10.7015 24.726 9.35012 26.0109 9.35012 27.787C9.35012 29.542 10.7015 30.847 12.362 30.847C14.0244 30.847 15.3737 29.585 15.3737 27.787ZM15.398 33.1371V31.746C14.5789 32.709 13.3588 33.3071 11.8993 33.3071C8.86531 33.3071 6.5625 30.953 6.5625 27.787C6.5625 24.641 8.95318 22.2449 11.9671 22.2449C13.3851 22.2449 14.58 22.845 15.399 23.785V22.437H18.123V33.1371H15.398ZM31.3521 30.761C30.3986 30.761 30.134 30.419 30.134 29.521V24.77H31.8843V22.436H30.134V19.8259H27.3424V22.436H23.7467V21.7859C23.7467 20.886 24.1023 20.5429 25.0769 20.5429H25.6889V18.4679H24.3456C22.0428 18.4679 20.9581 19.1959 20.9581 21.4209V22.4349H19.4078V24.77H20.9581V33.136H23.7497V24.77H27.3453V30.013C27.3453 32.196 28.208 33.1381 30.4663 33.1381H31.9065V30.762L31.3521 30.761ZM41.3623 26.8229C41.1633 25.433 39.9887 24.598 38.6161 24.598C37.2425 24.598 36.1132 25.411 35.8264 26.8229H41.3623ZM35.8032 28.493C36.0032 30.0761 37.1768 30.976 38.6604 30.976C39.834 30.976 40.7431 30.4401 41.2733 29.584H44.1316C43.466 31.852 41.3623 33.3071 38.5938 33.3071C35.2507 33.3071 32.9034 31.04 32.9034 27.808C32.9034 24.577 35.384 22.2439 38.6625 22.2439C41.9622 22.2439 44.3528 24.598 44.3528 27.808C44.3528 28.044 44.3316 28.278 44.2872 28.493H35.8032ZM62.0997 27.787C62.0997 26.053 60.7482 24.726 59.0878 24.726C57.4273 24.726 56.0759 26.0109 56.0759 27.787C56.0759 29.542 57.4273 30.847 59.0878 30.847C60.7482 30.847 62.0997 29.521 62.0997 27.787ZM53.3287 22.437H56.0528V23.8279C56.8708 22.8429 58.0889 22.2449 59.5515 22.2449C62.541 22.2449 64.8873 24.621 64.8873 27.765C64.8873 30.912 62.4966 33.309 59.4848 33.309C58.0889 33.309 56.9375 32.7731 56.1416 31.875V37.5401H53.3287V22.437ZM74.7045 27.787C74.7045 25.9889 73.3552 24.726 71.6927 24.726C70.0322 24.726 68.6808 26.0109 68.6808 27.787C68.6808 29.542 70.0322 30.847 71.6927 30.847C73.3552 30.847 74.7045 29.585 74.7045 27.787ZM74.7288 33.1371V31.746C73.9096 32.709 72.6896 33.3071 71.2301 33.3071C68.196 33.3071 65.8933 30.953 65.8933 27.787C65.8933 24.641 68.2839 22.2449 71.2967 22.2449C72.7138 22.2449 73.9096 22.845 74.7288 23.785V22.437H77.4517V33.1371H74.7288ZM48.4202 23.4859C48.4202 23.4859 49.113 22.246 50.8108 22.246C51.537 22.246 52.0066 22.4859 52.0066 22.4859V25.2159C52.0066 25.2159 50.9825 24.6049 50.0412 24.728C49.0999 24.851 48.505 25.6859 48.508 26.804V33.1391H45.6962V22.4389H48.4202V23.4859ZM90.1717 22.437L83.2956 37.5061H80.3959L83.0956 31.68L78.5304 22.437H81.817L84.4874 28.613L87.2275 22.437H90.1717ZM112.123 22.1939L105.305 18.3929C103.305 17.2769 100.803 18.6709 100.803 20.9049V21.295C100.803 21.647 100.998 21.9729 101.313 22.1479L102.601 22.8659C102.979 23.0779 103.449 22.8139 103.449 22.393V21.423C103.449 20.9379 103.992 20.634 104.427 20.8769L110.332 24.171C110.766 24.413 110.766 25.019 110.332 25.2609L104.427 28.554C103.992 28.796 103.45 28.494 103.45 28.008V27.492C103.45 25.259 100.948 23.8619 98.9456 24.98L92.1281 28.782C91.6735 29.0291 91.2945 29.3928 91.0304 29.8347C90.7663 30.2766 90.627 30.7806 90.627 31.294C90.627 31.8074 90.7663 32.3115 91.0304 32.7534C91.2945 33.1953 91.6735 33.5589 92.1281 33.806L98.9456 37.6071C100.946 38.7231 103.45 37.3291 103.45 35.095V34.7051C103.449 34.5308 103.401 34.36 103.311 34.21C103.221 34.0602 103.093 33.9366 102.939 33.852L101.652 33.1321C101.275 32.921 100.803 33.185 100.803 33.606V34.5761C100.803 35.061 100.26 35.364 99.8262 35.1211L93.9209 31.8281C93.8223 31.7742 93.7401 31.6952 93.683 31.5992C93.6258 31.5034 93.5956 31.3939 93.5956 31.2825C93.5956 31.1711 93.6258 31.0617 93.683 30.9658C93.7401 30.8699 93.8223 30.7909 93.9209 30.737L99.8262 27.443C100.261 27.2 100.803 27.503 100.803 27.989V28.505C100.803 30.738 103.304 32.1351 105.305 31.017L112.123 27.2149C112.576 26.968 112.955 26.6046 113.219 26.1631C113.482 25.7215 113.621 25.218 113.621 24.705C113.621 24.1919 113.482 23.6883 113.219 23.2468C112.955 22.8053 112.576 22.441 112.123 22.1939Z" fill="black"/>
</svg>
