<svg width="110" height="56" viewBox="0 0 110 56" fill="none" xmlns="http://www.w3.org/2000/svg">
<g opacity="0.4">
<path d="M28.042 18H21.8021L19.2806 21.6238L17.7805 25.2153L21.8021 25.6683L25.9834 25.2315L29.0794 19.7957C29.5262 19.003 28.9517 18 28.042 18Z" fill="black"/>
<path d="M6.9762 19.8119L9.57749 24.3255C9.89668 24.8756 10.4712 25.2153 11.1096 25.2153L17.7804 25.2315L21.8021 18H7.99757C7.08792 18 6.51339 19.0192 6.9762 19.8119Z" fill="black"/>
<path d="M19.1052 37.3973C18.6583 38.19 17.5253 38.2062 17.0624 37.4135L14.4771 33.0131C14.1579 32.4631 14.142 31.7674 14.4611 31.2012L17.7966 25.2155L25.9834 25.2315L19.1052 37.3973Z" fill="black"/>
<path d="M34.5692 33.6116H32.9094L37.2981 21.818H38.9899L43.3784 33.6116H41.7188L40.6015 30.4084H35.7022L34.5692 33.6116ZM38.112 23.6784L36.2129 29.0009H40.075L38.1759 23.6784H38.112ZM48.7089 33.8704C48.1183 33.8704 47.5916 33.741 47.1128 33.4983C46.634 33.2395 46.2671 32.9159 45.9958 32.4953H45.932L45.9958 33.6116V37.1707H44.4957V25.5389H45.932V26.6551H45.9958C46.2509 26.2345 46.634 25.8948 47.1128 25.6521C47.5916 25.3933 48.1341 25.28 48.7089 25.28C49.7621 25.28 50.6558 25.7007 51.374 26.5257C52.124 27.3669 52.491 28.3862 52.491 29.5671C52.491 30.7643 52.124 31.7835 51.374 32.6085C50.6397 33.4498 49.7621 33.8704 48.7089 33.8704ZM48.4534 32.4791C49.1715 32.4791 49.7779 32.2041 50.2566 31.6541C50.7515 31.1202 50.9909 30.4246 50.9909 29.5671C50.9909 28.7259 50.7515 28.0302 50.2566 27.4802C49.7621 26.9301 49.1715 26.6551 48.4534 26.6551C47.7195 26.6551 47.1128 26.9301 46.634 27.4802C46.1553 28.0302 45.9159 28.7259 45.9159 29.5671C45.9159 30.4246 46.1553 31.1202 46.634 31.6702C47.1289 32.2203 47.7352 32.4791 48.4534 32.4791ZM57.8373 33.8704C57.2467 33.8704 56.7203 33.741 56.2412 33.4983C55.7624 33.2395 55.3955 32.9159 55.1242 32.4953H55.0604L55.1242 33.6116V37.1707H53.6241V25.5389H55.0604V26.6551H55.1242C55.3797 26.2345 55.7624 25.8948 56.2412 25.6521C56.7203 25.3933 57.2628 25.28 57.8373 25.28C58.8905 25.28 59.7842 25.7007 60.5024 26.5257C61.2524 27.3669 61.6194 28.3862 61.6194 29.5671C61.6194 30.7643 61.2524 31.7835 60.5024 32.6085C59.7842 33.4498 58.8905 33.8704 57.8373 33.8704ZM57.5979 32.4791C58.316 32.4791 58.9224 32.2041 59.4012 31.6541C59.896 31.1202 60.1354 30.4246 60.1354 29.5671C60.1354 28.7259 59.896 28.0302 59.4012 27.4802C58.9066 26.9301 58.316 26.6551 57.5979 26.6551C56.8636 26.6551 56.2573 26.9301 55.7785 27.4802C55.2998 28.0302 55.0604 28.7259 55.0604 29.5671C55.0604 30.4246 55.2998 31.1202 55.7785 31.6702C56.2573 32.2203 56.8636 32.4791 57.5979 32.4791ZM70.4446 30.4569C70.4446 31.4923 70.0776 32.3173 69.3276 32.9483C68.5618 33.563 67.6519 33.8704 66.5668 33.8704C65.6093 33.8704 64.7475 33.5792 64.0132 33.013C63.2793 32.4468 62.7686 31.6541 62.4812 30.6672L63.9175 30.0687C64.0132 30.4246 64.1569 30.7319 64.3167 31.0231C64.492 31.3143 64.6994 31.557 64.923 31.7511C65.1624 31.9614 65.4176 32.107 65.6889 32.2365C65.9763 32.3497 66.2636 32.4144 66.5826 32.4144C67.2689 32.4144 67.8275 32.2365 68.2583 31.8805C68.6894 31.5246 68.9126 31.0555 68.9126 30.4569C68.9126 29.9554 68.737 29.5348 68.3701 29.195C68.035 28.8553 67.4125 28.5318 66.4869 28.2082C65.5613 27.8685 64.9707 27.642 64.7475 27.5125C63.5187 26.8816 62.8962 25.9433 62.8962 24.6976C62.8962 23.824 63.2313 23.096 63.9175 22.4651C64.6038 21.8503 65.4656 21.5429 66.4711 21.5429C67.3645 21.5429 68.1307 21.7694 68.785 22.2386C69.4394 22.6916 69.8702 23.2578 70.0776 23.9373L68.6732 24.5358C68.5457 24.099 68.2902 23.727 67.9074 23.4358C67.5243 23.1445 67.0614 22.9989 66.503 22.9989C65.9125 22.9989 65.4176 23.1607 65.0187 23.5005C64.6199 23.8078 64.4124 24.2123 64.4124 24.6976C64.4124 25.1021 64.5719 25.458 64.8911 25.7492C65.2423 26.0404 65.9924 26.3963 67.1574 26.8007C68.3382 27.2052 69.1839 27.7067 69.6788 28.2891C70.1894 28.8877 70.4446 29.5995 70.4446 30.4569ZM71.9769 21.8018H73.477V25.5227L73.4132 26.6389H73.477C73.7003 26.2507 74.0514 25.9109 74.5302 25.6521C75.009 25.3933 75.4877 25.2639 75.9984 25.2639C76.972 25.2639 77.7221 25.5551 78.2485 26.1051C78.7753 26.6713 79.0308 27.4802 79.0308 28.5156V33.5954H77.5465V28.823C77.5465 27.3669 76.9082 26.6551 75.6472 26.6551C75.0409 26.6551 74.5302 26.914 74.1152 27.4155C73.7003 27.9332 73.4928 28.5156 73.4928 29.2112V33.6116H71.9927V21.8018H71.9769ZM84.361 33.8704C83.196 33.8704 82.2223 33.466 81.4723 32.6571C80.7222 31.8482 80.3391 30.8128 80.3391 29.5833C80.3391 28.3538 80.7064 27.3346 81.4404 26.5095C82.1746 25.6845 83.116 25.28 84.2653 25.28C85.4461 25.28 86.3878 25.6683 87.0898 26.4448C87.7922 27.2213 88.1431 28.3053 88.1431 29.6966L88.1273 29.8583H81.8715C81.8872 30.6511 82.1585 31.282 82.6534 31.7673C83.1479 32.2526 83.7546 32.4953 84.4409 32.4953C85.3984 32.4953 86.1484 32.01 86.691 31.0393L88.0316 31.7026C87.6804 32.3821 87.1855 32.9159 86.5473 33.3042C85.8929 33.6763 85.1748 33.8704 84.361 33.8704ZM81.9829 28.5965H86.5473C86.4993 28.0302 86.276 27.5773 85.8772 27.2052C85.478 26.8331 84.9196 26.6551 84.2492 26.6551C83.6905 26.6551 83.1959 26.8331 82.7971 27.189C82.3821 27.5287 82.1108 27.9979 81.9829 28.5965ZM93.1543 33.8704C91.9893 33.8704 91.0156 33.466 90.2656 32.6571C89.5156 31.8482 89.1325 30.8128 89.1325 29.5833C89.1325 28.3538 89.4998 27.3346 90.2337 26.5095C90.968 25.6845 91.9094 25.28 93.0586 25.28C94.2394 25.28 95.1811 25.6683 95.8832 26.4448C96.5855 27.2213 96.9364 28.3053 96.9364 29.6966L96.9206 29.8583H90.6648C90.6806 30.6511 90.9518 31.282 91.4467 31.7673C91.9413 32.2526 92.5479 32.4953 93.2342 32.4953C94.1917 32.4953 94.9418 32.01 95.4843 31.0393L96.8249 31.7026C96.4737 32.3821 95.9789 32.9159 95.3406 33.3042C94.6863 33.6763 93.9681 33.8704 93.1543 33.8704ZM90.7763 28.5965H95.3406C95.2926 28.0302 95.0694 27.5773 94.6705 27.2052C94.2713 26.8331 93.713 26.6551 93.0425 26.6551C92.4841 26.6551 91.9893 26.8331 91.5904 27.189C91.1754 27.5287 90.9042 27.9979 90.7763 28.5965ZM101.213 33.741C100.559 33.741 100.016 33.5307 99.6018 33.1262C99.1868 32.7218 98.9475 32.1556 98.9475 31.4276V26.914H97.5431V25.5227H98.9475V23.0475H100.448V25.5227H102.394V26.914H100.448V30.9422C100.448 31.4761 100.543 31.8482 100.751 32.0423C100.958 32.2365 101.198 32.3335 101.453 32.3335C101.565 32.3335 101.692 32.3173 101.804 32.285C101.916 32.2526 102.028 32.2203 102.123 32.1717L102.602 33.5307C102.187 33.6601 101.724 33.741 101.213 33.741Z" fill="black"/>
</g>
</svg>
