<svg width="110" height="56" viewBox="0 0 110 56" fill="none" xmlns="http://www.w3.org/2000/svg">
<g opacity="0.4">
<path fill-rule="evenodd" clip-rule="evenodd" d="M11.2557 33.5325L14.3686 31.1505C16.0215 33.3065 17.777 34.3001 19.7331 34.3001C21.6783 34.3001 23.3855 33.318 24.9644 31.179L28.1201 33.504C25.8436 36.5879 23.0113 38.2172 19.7331 38.2172C16.4657 38.2172 13.6071 36.5993 11.2557 33.5325Z" fill="black"/>
<path fill-rule="evenodd" clip-rule="evenodd" d="M19.7218 23.1802L14.1815 27.9495L11.622 24.9821L19.7328 18L27.7806 24.9876L25.2084 27.9441L19.7218 23.1802Z" fill="black"/>
<path d="M49.3679 22.0261H46.2312V35.0832H49.3679V22.0261Z" fill="black"/>
<path fill-rule="evenodd" clip-rule="evenodd" d="M39.8916 35.1407C38.0426 35.1407 36.5017 34.542 35.2518 33.3447C34.0019 32.1302 33.3854 30.5737 33.3854 28.6751C33.3854 26.7593 34.0191 25.1857 35.2686 23.9541C36.5358 22.7055 38.0766 22.0897 39.9088 22.0897C42.1686 22.0897 44.1719 23.0647 45.3365 24.587L43.2987 26.7251C42.3229 25.6817 41.2613 25.1515 40.1144 25.1515C39.1382 25.1515 38.3335 25.4764 37.6659 26.1435C37.0151 26.8106 36.6901 27.6488 36.6901 28.658C36.6901 29.6329 37.0151 30.4539 37.6659 31.121C38.3335 31.771 39.1382 32.096 40.0972 32.096C41.3471 32.096 42.4427 31.5486 43.35 30.4711L45.4736 32.5065C44.8913 33.2762 44.1034 33.9091 43.1276 34.4052C42.1518 34.9012 41.073 35.1407 39.8916 35.1407Z" fill="black"/>
<path fill-rule="evenodd" clip-rule="evenodd" d="M54.0716 23.071C54.0716 24.0084 53.3115 24.7684 52.3727 24.7684C51.4343 24.7684 50.6738 24.0084 50.6738 23.071C50.6738 22.1335 51.4343 21.3736 52.3727 21.3736C53.3115 21.3736 54.0716 22.1335 54.0716 23.071ZM53.9413 25.5518H50.8045V35.0835H53.9413V25.5518Z" fill="black"/>
<path fill-rule="evenodd" clip-rule="evenodd" d="M60.0046 35.1578C58.5151 35.1578 57.3165 34.6961 56.3751 33.7724C55.4506 32.8487 54.9882 31.6685 54.9882 30.2146C54.9882 28.7607 55.4506 27.5804 56.3919 26.6568C57.3337 25.7331 58.5496 25.2713 60.0559 25.2713C62.0252 25.2713 63.7544 26.2292 64.5591 28.0252L62.145 29.2909C61.6653 28.487 60.9981 28.0765 60.1245 28.0765C59.4913 28.0765 58.9776 28.2818 58.5664 28.6922C58.1729 29.1028 57.9673 29.6159 57.9673 30.2146C57.9673 31.4632 58.8745 32.3869 60.0904 32.3869C60.9636 32.3869 61.7683 31.9079 62.1105 31.1724L64.525 32.6093C63.7031 34.1829 62.008 35.1578 60.0046 35.1578Z" fill="black"/>
<path fill-rule="evenodd" clip-rule="evenodd" d="M68.4497 22.0261H65.3129V35.0832H68.4497V31.7592L68.8171 31.4168L71.6844 35.0832H75.3337L70.9281 29.4502L75.113 25.5515H71.2804L68.4497 28.1886V22.0261Z" fill="black"/>
<path fill-rule="evenodd" clip-rule="evenodd" d="M75.9008 30.1492V22.0261H79.1684V29.9673C79.1684 31.387 79.9966 32.0712 81.1944 32.0712C82.3745 32.0712 83.22 31.3528 83.22 29.9673V22.0261H86.4875V30.1492C86.4875 33.878 83.867 35.2806 81.1944 35.2806C78.5386 35.2806 75.9008 33.878 75.9008 30.1492Z" fill="black"/>
<path fill-rule="evenodd" clip-rule="evenodd" d="M93.5447 35.344C96.0711 35.344 98.1194 33.1226 98.1194 30.3823C98.1194 27.642 96.0711 25.4206 93.5447 25.4206C92.5151 25.4206 91.565 25.7897 90.8002 26.4125V25.5512H87.7942V39H90.8002V34.3521C91.565 34.9749 92.5151 35.344 93.5447 35.344ZM90.8002 30.3874V30.3772C90.8027 29.1536 91.7672 28.1626 92.9566 28.1626C94.148 28.1626 95.1133 29.1564 95.1133 30.3823C95.1133 31.6082 94.148 32.602 92.9566 32.602C91.7672 32.602 90.8027 31.611 90.8002 30.3874Z" fill="black"/>
</g>
</svg>
