<svg width="110" height="56" viewBox="0 0 110 56" fill="none" xmlns="http://www.w3.org/2000/svg">
<path opacity="0.4" d="M27.3037 24.7461C23.9979 24.7461 21.4148 27.3705 21.4148 30.8838C21.4148 34.3972 23.9326 36.9991 27.3037 36.9991C30.6748 36.9991 33.2363 34.3522 33.2363 30.8614C33.2363 27.3929 30.7186 24.7461 27.3037 24.7461ZM27.326 34.4671C25.4435 34.4671 24.064 32.9381 24.064 30.8847C24.064 28.808 25.4211 27.2798 27.3037 27.2798C29.2086 27.2798 30.5872 28.8313 30.5872 30.8847C30.5872 32.9381 29.2086 34.4671 27.326 34.4671ZM33.9583 27.4163H35.6005V36.7719H38.2273V24.9741H33.9583V27.4163ZM14.804 27.2789C16.1836 27.2789 17.2781 28.1687 17.6935 29.4921H20.474C19.9701 26.663 17.7373 24.7461 14.8263 24.7461C11.5205 24.7461 8.9375 27.3705 8.9375 30.8847C8.9375 34.3989 11.4553 37 14.8263 37C17.672 37 19.9486 35.0831 20.4525 32.2306H17.6935C17.2995 33.5541 16.205 34.4671 14.8255 34.4671C12.9206 34.4671 11.5858 32.9381 11.5858 30.8847C11.5866 28.808 12.9 27.2789 14.804 27.2789ZM83.8693 29.7435L81.943 29.4472C81.0237 29.3107 80.367 28.9911 80.367 28.2378C80.367 27.4163 81.221 27.006 82.3808 27.006C83.6504 27.006 84.4608 27.576 84.6359 28.5117H87.1751C86.8902 26.1386 85.139 24.7469 82.4469 24.7469C79.6664 24.7469 77.8277 26.2302 77.8277 28.3294C77.8277 30.337 79.032 31.5015 81.4614 31.866L83.3878 32.1624C84.3295 32.2988 84.8548 32.6875 84.8548 33.4175C84.8548 34.3531 83.9354 34.741 82.6658 34.741C81.1112 34.741 80.2356 34.0793 80.1042 33.0754H77.5213C77.7624 35.3802 79.4914 37 82.6435 37C85.5115 37 87.4156 35.6307 87.4156 33.2802C87.4156 31.181 86.0369 30.0856 83.8693 29.7435ZM36.9139 20.114C35.9507 20.114 35.2279 20.844 35.2279 21.8478C35.2279 22.8516 35.9499 23.5815 36.9139 23.5815C37.877 23.5815 38.5998 22.8516 38.5998 21.8478C38.5998 20.844 37.877 20.114 36.9139 20.114ZM75.4635 29.0136C75.4635 26.4582 73.9751 24.7469 70.8229 24.7469C67.8458 24.7469 66.1822 26.3217 65.8534 28.7406H68.4588C68.5901 27.805 69.2905 27.0292 70.7791 27.0292C72.1148 27.0292 72.7715 27.6452 72.7715 28.3985C72.7715 29.3799 71.5671 29.6304 70.0786 29.7902C68.0647 30.0182 65.5692 30.7482 65.5692 33.4866C65.5692 35.6092 67.0801 36.9775 69.488 36.9775C71.3705 36.9775 72.5526 36.156 73.144 34.855C73.2316 36.0186 74.0634 36.7719 75.224 36.7719H76.7564V34.3307H75.4644L75.4635 29.0136ZM72.8806 31.98C72.8806 33.5549 71.5671 34.7185 69.9687 34.7185C68.9832 34.7185 68.1515 34.2848 68.1515 33.3726C68.1515 32.209 69.4871 31.8893 70.713 31.7528C71.8951 31.6388 72.5518 31.365 72.8806 30.8398V31.98ZM58.9361 24.7461C57.4691 24.7461 56.2432 25.3854 55.3676 26.4574V20H52.7408V36.7719H55.3239V35.2204C56.1995 36.3382 57.4476 37 58.9361 37C62.0883 37 64.4747 34.3989 64.4747 30.8847C64.4747 27.3705 62.0445 24.7461 58.9361 24.7461ZM58.5421 34.4671C56.6596 34.4671 55.2801 32.9381 55.2801 30.8847C55.2801 28.8313 56.681 27.2798 58.5636 27.2798C60.4684 27.2798 61.8033 28.8088 61.8033 30.8847C61.8033 32.9381 60.4247 34.4671 58.5421 34.4671ZM46.4579 24.7461C44.7505 24.7461 43.6337 25.476 42.977 26.5032V24.9741H40.3717V36.7711H42.9985V30.3595C42.9985 28.5566 44.093 27.2789 45.7129 27.2789C47.2237 27.2789 48.1646 28.3967 48.1646 30.0174V36.7719H50.7914V29.8127C50.7922 26.8453 49.3259 24.7461 46.4579 24.7461ZM99.9375 30.4968C99.9375 27.12 97.573 24.7469 94.3989 24.7469C91.0281 24.7469 88.5539 27.3938 88.5539 30.8847C88.5539 34.5587 91.2027 37 94.443 37C97.1797 37 99.3246 35.3111 99.8714 32.9156H97.1347C96.7404 33.9652 95.7774 34.5587 94.4853 34.5587C92.7999 34.5587 91.5299 33.4633 91.2459 31.5464H99.9366L99.9375 30.4968ZM91.3994 29.5837C91.8157 27.9407 92.9984 27.1424 94.3548 27.1424C95.8435 27.1424 96.9821 28.0322 97.2449 29.5837H91.3994Z" fill="black"/>
</svg>
