<svg width="80" height="56" viewBox="0 0 80 56" fill="none" xmlns="http://www.w3.org/2000/svg">
<g opacity="0.4">
<path d="M28.1426 23.3343C28.1426 23.9764 28.2121 24.4971 28.3336 24.879C28.4725 25.2609 28.646 25.6775 28.889 26.1288C28.9758 26.2676 29.0105 26.4065 29.0105 26.528C29.0105 26.7015 28.9063 26.8751 28.6807 27.0487L27.5872 27.7777C27.431 27.8818 27.2748 27.9339 27.1359 27.9339C26.9624 27.9339 26.7888 27.8471 26.6152 27.6909C26.3722 27.4305 26.1639 27.1528 25.9904 26.8751C25.8168 26.5801 25.6432 26.2502 25.4523 25.8511C24.0984 27.4479 22.3974 28.2463 20.3492 28.2463C18.8912 28.2463 17.7283 27.8298 16.8778 26.9966C16.0273 26.1635 15.5933 25.0526 15.5933 23.664C15.5933 22.1887 16.114 20.9911 17.1728 20.0885C18.2316 19.1859 19.6376 18.7346 21.4254 18.7346C22.0155 18.7346 22.623 18.7867 23.2653 18.8734C23.9074 18.9603 24.567 19.0991 25.2614 19.2553V17.9883C25.2614 16.6691 24.9836 15.7492 24.4455 15.2111C23.8901 14.673 22.9528 14.4127 21.6163 14.4127C21.0088 14.4127 20.3839 14.4821 19.7417 14.6383C19.0995 14.7945 18.4746 14.9854 17.8671 15.2285C17.5894 15.3499 17.3811 15.4194 17.2596 15.4541C17.1381 15.4888 17.0514 15.5062 16.9819 15.5062C16.7389 15.5062 16.6174 15.3326 16.6174 14.9681V14.1176C16.6174 13.8398 16.6521 13.6315 16.7389 13.5101C16.8257 13.3885 16.9819 13.2671 17.2249 13.1456C17.8324 12.8331 18.5614 12.5728 19.4119 12.3645C20.2625 12.1389 21.165 12.0347 22.1197 12.0347C24.1852 12.0347 25.6953 12.5034 26.6672 13.4407C27.6219 14.3779 28.1079 15.8012 28.1079 17.7105V23.3343H28.1426ZM21.0956 25.9725C21.6684 25.9725 22.2586 25.8684 22.8834 25.6601C23.5083 25.4518 24.0637 25.07 24.5323 24.5493C24.8101 24.2194 25.0183 23.855 25.1225 23.4384C25.2266 23.0218 25.2961 22.5185 25.2961 21.9283V21.1993C24.7927 21.0778 24.2546 20.9737 23.6992 20.9042C23.1437 20.8348 22.6057 20.8001 22.0676 20.8001C20.9046 20.8001 20.0542 21.0258 19.4813 21.4944C18.9086 21.963 18.6309 22.6226 18.6309 23.4904C18.6309 24.3063 18.8392 24.9137 19.2731 25.3303C19.6896 25.7642 20.2972 25.9725 21.0956 25.9725ZM35.0335 27.8471C34.7211 27.8471 34.5128 27.7951 34.3739 27.6735C34.2351 27.5694 34.1136 27.3264 34.0094 26.9966L29.9305 13.5795C29.8263 13.2324 29.7742 13.0067 29.7742 12.8852C29.7742 12.6075 29.9131 12.4513 30.1908 12.4513H31.8918C32.2216 12.4513 32.4473 12.5034 32.5687 12.6248C32.7076 12.729 32.8117 12.972 32.9159 13.3018L35.8319 24.7923L38.5396 13.3018C38.6265 12.9547 38.7306 12.729 38.8695 12.6248C39.0083 12.5207 39.2513 12.4513 39.5637 12.4513H40.9523C41.2821 12.4513 41.5077 12.5034 41.6466 12.6248C41.7854 12.729 41.907 12.972 41.9764 13.3018L44.7188 24.9311L47.7216 13.3018C47.8258 12.9547 47.9473 12.729 48.0688 12.6248C48.2076 12.5207 48.4333 12.4513 48.7458 12.4513H50.36C50.6377 12.4513 50.7939 12.5901 50.7939 12.8852C50.7939 12.972 50.7766 13.0588 50.7592 13.163C50.7419 13.2671 50.7071 13.406 50.6377 13.5968L46.4546 27.0139C46.3504 27.3611 46.2289 27.5868 46.0901 27.6909C45.9512 27.7951 45.7255 27.8645 45.4305 27.8645H43.9378C43.608 27.8645 43.3823 27.8124 43.2435 27.6909C43.1046 27.5694 42.9831 27.3438 42.9137 26.9966L40.2233 15.8012L37.5503 26.9792C37.4635 27.3264 37.3594 27.5521 37.2205 27.6735C37.0816 27.7951 36.8387 27.8471 36.5262 27.8471H35.0335ZM57.3376 28.3158C56.435 28.3158 55.5324 28.2116 54.6645 28.0033C53.7967 27.7951 53.1198 27.5694 52.6685 27.3091C52.3908 27.1528 52.1999 26.9792 52.1304 26.8231C52.061 26.6668 52.0263 26.4932 52.0263 26.3371V25.4518C52.0263 25.0873 52.1651 24.9137 52.4255 24.9137C52.5296 24.9137 52.6338 24.9311 52.7379 24.9658C52.8421 25.0005 52.9983 25.07 53.1718 25.1394C53.762 25.3998 54.4042 25.6081 55.0811 25.7469C55.7754 25.8858 56.4524 25.9552 57.1466 25.9552C58.2402 25.9552 59.0907 25.7642 59.6808 25.3824C60.271 25.0005 60.5834 24.4451 60.5834 23.7334C60.5834 23.2475 60.4272 22.8482 60.1148 22.5185C59.8023 22.1887 59.2122 21.8936 58.3617 21.6159L55.8449 20.8348C54.5778 20.4356 53.6405 19.8454 53.0677 19.0644C52.4949 18.3007 52.1998 17.4502 52.1998 16.5476C52.1998 15.8186 52.356 15.1764 52.6685 14.6209C52.9809 14.0655 53.3975 13.5795 53.9182 13.1977C54.439 12.7984 55.0291 12.5034 55.7234 12.2951C56.4177 12.0868 57.1467 12 57.9104 12C58.2922 12 58.6915 12.0174 59.0733 12.0694C59.4725 12.1215 59.837 12.1909 60.2016 12.2604C60.5487 12.3471 60.8785 12.4339 61.1909 12.5381C61.5033 12.6422 61.7463 12.7464 61.9199 12.8505C62.1629 12.9894 62.3365 13.1282 62.4406 13.2844C62.5448 13.4233 62.5968 13.6142 62.5968 13.8572V14.673C62.5968 15.0375 62.458 15.2285 62.1976 15.2285C62.0588 15.2285 61.8331 15.159 61.538 15.0202C60.5487 14.5689 59.4378 14.3432 58.2055 14.3432C57.2161 14.3432 56.435 14.4994 55.8969 14.8292C55.3588 15.159 55.0811 15.6623 55.0811 16.374C55.0811 16.86 55.2547 17.2766 55.6018 17.6064C55.949 17.9361 56.5912 18.266 57.5112 18.561L59.9759 19.3421C61.2256 19.7413 62.1282 20.2967 62.6663 21.0084C63.2044 21.72 63.4647 22.5358 63.4647 23.4384C63.4647 24.1847 63.3085 24.8617 63.0134 25.4518C62.701 26.042 62.2844 26.5627 61.7463 26.9792C61.2083 27.4132 60.566 27.7256 59.8197 27.9513C59.0386 28.1943 58.2228 28.3158 57.3376 28.3158Z" fill="black"/>
<path fill-rule="evenodd" clip-rule="evenodd" d="M60.6202 36.7514C54.9096 40.9692 46.6128 43.2083 39.479 43.2083C29.4812 43.2083 20.4728 39.5112 13.6687 33.3667C13.1306 32.8807 13.6166 32.2211 14.2589 32.603C21.6183 36.8728 30.6962 39.4591 40.0865 39.4591C46.4219 39.4591 53.3822 38.14 59.787 35.4322C60.7416 34.9983 61.5575 36.0571 60.6202 36.7514Z" fill="black"/>
<path fill-rule="evenodd" clip-rule="evenodd" d="M62.9984 34.0436C62.2694 33.1063 58.1731 33.5923 56.3159 33.8179C55.7604 33.8873 55.6736 33.4014 56.177 33.0368C59.4401 30.7457 64.8036 31.4053 65.4284 32.169C66.0533 32.9501 65.2549 38.3134 62.2 40.8823C61.7313 41.2815 61.28 41.0732 61.4883 40.5525C62.1826 38.8341 63.7274 34.9635 62.9984 34.0436Z" fill="black"/>
</g>
</svg>
