<svg width="96" height="56" viewBox="0 0 96 56" fill="none" xmlns="http://www.w3.org/2000/svg">
<g opacity="0.4">
<path d="M20.2774 21.4869H9.90983V24.7797H16.7228C17.1671 24.7797 17.4634 25.1456 17.4634 25.5115V31.2922H15.9823C15.5379 31.2922 15.2417 30.9264 15.2417 30.5605V26.3896H12.3536C10.8725 26.3896 9.68762 27.5603 9.68762 29.0238V31.9508C9.68762 33.4143 10.8725 34.5851 12.3536 34.5851H22.9433V24.1212C22.9433 22.6577 21.7585 21.4869 20.2774 21.4869Z" fill="black"/>
<path d="M32.9426 31.2918H31.4615C31.0172 31.2918 30.7209 30.9259 30.7209 30.5601V21.4874H27.8329C26.3518 21.4874 25.1669 22.6581 25.1669 24.1214V31.9503C25.1669 33.4136 26.3518 34.5842 27.8329 34.5842H38.4226V16H32.8685L32.9426 31.2918Z" fill="black"/>
<path d="M48.4175 31.2932H46.9365C46.4921 31.2932 46.196 30.9274 46.196 30.5616V21.489H40.6419V31.9517C40.6419 33.415 41.8267 34.5857 43.3078 34.5857H48.4175V36.1954H40.8641V40H51.3057C52.7868 40 53.9716 38.8293 53.9716 37.366V21.489H48.4175V31.2932Z" fill="black"/>
<path d="M66.7816 21.489H56.1179V31.953C56.1179 33.4165 57.3027 34.5873 58.7838 34.5873H69.2255V31.2944H62.4125C61.9682 31.2944 61.6719 30.9285 61.6719 30.5626V24.7819H63.153C63.5973 24.7819 63.8936 25.1478 63.8936 25.5135V29.6846H66.7816C68.2627 29.6846 69.4476 28.5138 69.4476 27.0503V24.1233C69.4476 22.6598 68.2627 21.489 66.7816 21.489Z" fill="black"/>
<path d="M82.258 21.489H71.6682V34.5873H77.2222V24.7819H78.7033C79.1477 24.7819 79.4439 25.1478 79.4439 25.5135V34.5873H84.998V24.1233C84.9239 22.6598 83.7391 21.489 82.258 21.489Z" fill="black"/>
</g>
</svg>
